<?xml version="1.0" standalone="no"?>
<!DOCTYPE svg PUBLIC "-//W3C//DTD SVG 20010904//EN"
 "http://www.w3.org/TR/2001/REC-SVG-20010904/DTD/svg10.dtd">
<svg version="1.0" xmlns="http://www.w3.org/2000/svg"
 width="1280.000000pt" height="1216.000000pt" viewBox="0 0 1280.000000 1216.000000"
 preserveAspectRatio="xMidYMid meet">
<metadata>
Created by potrace 1.15, written by Peter Selinger 2001-2017
</metadata>
<g transform="translate(0.000000,1216.000000) scale(0.100000,-0.100000)"
fill="#000000" stroke="none">
<path d="M3980 12154 c-1007 -73 -1932 -486 -2659 -1189 -905 -875 -1394
-2138 -1311 -3390 86 -1287 743 -2448 1785 -3153 362 -246 755 -427 1172 -542
631 -173 1265 -193 1923 -60 52 10 145 28 205 40 517 99 1026 312 1495 625
l142 95 32 -28 c18 -15 809 -745 1757 -1622 948 -877 2013 -1863 2367 -2190
354 -327 658 -602 675 -611 18 -9 54 -20 80 -23 32 -5 64 -19 93 -41 52 -40
128 -65 194 -65 163 0 389 126 569 316 254 269 359 560 267 742 -27 53 -46 71
-3611 3366 -660 610 -1227 1134 -1260 1165 -33 31 -73 65 -88 76 l-28 20 81
135 c538 890 734 1966 544 2980 -111 595 -362 1176 -721 1668 -490 671 -1212
1191 -1988 1430 -472 146 -707 200 -1025 237 -129 15 -572 27 -690 19z"/>
</g>
</svg>
